<?xml version="1.0" encoding="UTF-8"?>
<svg version="1.1" xmlns="http://www.w3.org/2000/svg" width="32" height="32">
<path d="M0 0 C2.31 0.33 4.62 0.66 7 1 C7.33 2.32 7.66 3.64 8 5 C8.69150146 4.99476318 9.38300293 4.98952637 10.09545898 4.98413086 C13.20946352 4.963425 16.32345361 4.95036037 19.4375 4.9375 C20.52611328 4.92912109 21.61472656 4.92074219 22.73632812 4.91210938 C23.77080078 4.90888672 24.80527344 4.90566406 25.87109375 4.90234375 C26.82943115 4.89710693 27.78776855 4.89187012 28.77514648 4.88647461 C31 5 31 5 32 6 C32.48277484 11.79329807 31.36041869 16.68364414 29 22 C28.34 22.66 27.68 23.32 27 24 C27.33 24.33 27.66 24.66 28 25 C28.1875 27.4375 28.1875 27.4375 28 30 C27.34 30.66 26.68 31.32 26 32 C21.44444444 31.44444444 21.44444444 31.44444444 20 30 C19.875 27.5 19.875 27.5 20 25 C20.33 24.67 20.66 24.34 21 24 C19.02 24 17.04 24 15 24 C15.185625 24.598125 15.37125 25.19625 15.5625 25.8125 C16 28 16 28 15 31 C12.6875 31.6875 12.6875 31.6875 10 32 C8.125 30.875 8.125 30.875 7 29 C7.42105263 24.57894737 7.42105263 24.57894737 9 23 C8.29423828 22.51080078 8.29423828 22.51080078 7.57421875 22.01171875 C5.18468724 18.95809908 5.1686458 15.55366459 4.8125 11.8125 C4.6897168 10.68811523 4.6897168 10.68811523 4.56445312 9.54101562 C4.36459216 7.69524082 4.18073462 5.84774567 4 4 C2.68 4 1.36 4 0 4 C0 2.68 0 1.36 0 0 Z " fill="#000000" transform="translate(0,0)"/>
</svg>
