<?xml version="1.0" encoding="UTF-8"?>
<svg version="1.1" xmlns="http://www.w3.org/2000/svg" width="32" height="32">
<path d="M0 0 C3.58440527 0.35586799 6.19503568 0.51079656 9.75 -0.1875 C12.25 -0.5 12.25 -0.5 14.5625 1.25 C17.5300666 5.20675547 17.59497943 8.67028801 17.25 13.5 C16.046875 15.19384766 16.046875 15.19384766 14.25 16.5 C11.9375 16.88818359 11.9375 16.88818359 9.25 16.8984375 C8.280625 16.90230469 7.31125 16.90617187 6.3125 16.91015625 C5.301875 16.89855469 4.29125 16.88695313 3.25 16.875 C2.239375 16.88660156 1.22875 16.89820312 0.1875 16.91015625 C-0.781875 16.90628906 -1.75125 16.90242188 -2.75 16.8984375 C-3.636875 16.89505371 -4.52375 16.89166992 -5.4375 16.88818359 C-8.21974251 16.42114753 -9.1142784 15.77220199 -10.75 13.5 C-11.33949474 8.29279646 -10.49991559 4.94217134 -7.75 0.5 C-4.98340257 -0.88329872 -3.06023684 -0.3349513 0 0 Z " fill="#FFFF" transform="translate(12.75,15.5)"/>
<path d="M0 0 C2.5625 2.0625 2.5625 2.0625 4 5 C3.94016186 8.47061229 3.67167343 10.88054428 1.875 13.875 C-1.11945572 15.67167343 -3.52938771 15.94016186 -7 16 C-9.9375 14.5625 -9.9375 14.5625 -12 12 C-12.93350908 7.99573739 -12.61452102 5.0242017 -10.5 1.5 C-6.9757983 -0.61452102 -4.00426261 -0.93350908 0 0 Z " fill="#FFFF" transform="translate(20,0)"/>
</svg>
